<mxfile host="app.diagrams.net" modified="2022-10-09T09:19:44.713Z" agent="5.0 (Macintosh)" etag="pRQV1iSLPoFIup-SNtOs" version="20.4.0" type="github">
  <diagram id="vO1amvy0kyj9_wai8O6I" name="Page-1">
    <mxGraphModel dx="2225" dy="1867" grid="1" gridSize="10" guides="1" tooltips="1" connect="1" arrows="1" fold="1" page="1" pageScale="1" pageWidth="850" pageHeight="1100" math="0" shadow="0">
      <root>
        <mxCell id="0" />
        <mxCell id="1" parent="0" />
        <mxCell id="cA0amRriEJMc-7uIuHtY-74" value="" style="rounded=0;whiteSpace=wrap;html=1;fontFamily=Helvetica;fontSize=25;fontColor=#1A1A1A;fillColor=none;gradientColor=none;" parent="1" vertex="1">
          <mxGeometry x="410" y="90" width="410" height="530" as="geometry" />
        </mxCell>
        <mxCell id="cA0amRriEJMc-7uIuHtY-109" value="" style="rounded=0;whiteSpace=wrap;html=1;fontFamily=Helvetica;fontSize=15.0667;fontColor=#1A1A1A;fillColor=none;gradientColor=none;" parent="1" vertex="1">
          <mxGeometry x="-490" y="90" width="320" height="530" as="geometry" />
        </mxCell>
        <mxCell id="cA0amRriEJMc-7uIuHtY-4" value="" style="whiteSpace=wrap;html=1;" parent="1" vertex="1">
          <mxGeometry x="810" y="-350" width="440" height="370" as="geometry" />
        </mxCell>
        <mxCell id="cA0amRriEJMc-7uIuHtY-106" value="" style="rounded=0;whiteSpace=wrap;html=1;fontFamily=Helvetica;fontSize=15.0667;fontColor=#1A1A1A;fillColor=none;gradientColor=none;" parent="1" vertex="1">
          <mxGeometry x="1050" y="-230" width="190" height="200" as="geometry" />
        </mxCell>
        <mxCell id="cA0amRriEJMc-7uIuHtY-70" value="" style="rounded=0;whiteSpace=wrap;html=1;fontFamily=Helvetica;fontSize=12;fontColor=#1A1A1A;fillColor=none;gradientColor=none;" parent="1" vertex="1">
          <mxGeometry x="-90" y="90" width="450" height="530" as="geometry" />
        </mxCell>
        <mxCell id="cA0amRriEJMc-7uIuHtY-83" value="" style="rounded=0;whiteSpace=wrap;html=1;fontFamily=Helvetica;fontSize=25;fontColor=#1A1A1A;fillColor=none;gradientColor=none;" parent="1" vertex="1">
          <mxGeometry x="1310" y="90" width="330" height="530" as="geometry" />
        </mxCell>
        <mxCell id="cA0amRriEJMc-7uIuHtY-76" value="" style="rounded=0;whiteSpace=wrap;html=1;fontFamily=Helvetica;fontSize=25;fontColor=#1A1A1A;fillColor=none;gradientColor=none;" parent="1" vertex="1">
          <mxGeometry x="860" y="90" width="360" height="530" as="geometry" />
        </mxCell>
        <mxCell id="cA0amRriEJMc-7uIuHtY-78" value="" style="rounded=1;whiteSpace=wrap;html=1;fontFamily=Helvetica;fontSize=25;fontColor=#1A1A1A;fillColor=none;gradientColor=none;" parent="1" vertex="1">
          <mxGeometry x="880" y="130" width="330" height="150" as="geometry" />
        </mxCell>
        <mxCell id="cA0amRriEJMc-7uIuHtY-5" value="async_socket(tcp)" style="whiteSpace=wrap;html=1;" parent="1" vertex="1">
          <mxGeometry x="1075" y="247" width="120" height="20" as="geometry" />
        </mxCell>
        <mxCell id="cA0amRriEJMc-7uIuHtY-6" value="quic(udp)" style="whiteSpace=wrap;html=1;" parent="1" vertex="1">
          <mxGeometry x="1075" y="423.5" width="120" height="30" as="geometry" />
        </mxCell>
        <mxCell id="cA0amRriEJMc-7uIuHtY-7" value="http_wrapper" style="swimlane;fontStyle=1;align=center;verticalAlign=top;childLayout=stackLayout;horizontal=1;startSize=26;horizontalStack=0;resizeParent=1;resizeParentMax=0;resizeLast=0;collapsible=1;marginBottom=0;" parent="1" vertex="1">
          <mxGeometry x="440" y="130" width="160" height="280" as="geometry" />
        </mxCell>
        <mxCell id="cA0amRriEJMc-7uIuHtY-8" value="+ woker: void*" style="text;strokeColor=none;fillColor=none;align=left;verticalAlign=top;spacingLeft=4;spacingRight=4;overflow=hidden;rotatable=0;points=[[0,0.5],[1,0.5]];portConstraint=eastwest;" parent="cA0amRriEJMc-7uIuHtY-7" vertex="1">
          <mxGeometry y="26" width="160" height="24" as="geometry" />
        </mxCell>
        <mxCell id="cA0amRriEJMc-7uIuHtY-11" value="+ user: void*" style="text;strokeColor=none;fillColor=none;align=left;verticalAlign=top;spacingLeft=4;spacingRight=4;overflow=hidden;rotatable=0;points=[[0,0.5],[1,0.5]];portConstraint=eastwest;" parent="cA0amRriEJMc-7uIuHtY-7" vertex="1">
          <mxGeometry y="50" width="160" height="20" as="geometry" />
        </mxCell>
        <mxCell id="cA0amRriEJMc-7uIuHtY-12" value="+ mem: MemoryEntry*" style="text;strokeColor=none;fillColor=none;align=left;verticalAlign=top;spacingLeft=4;spacingRight=4;overflow=hidden;rotatable=0;points=[[0,0.5],[1,0.5]];portConstraint=eastwest;" parent="cA0amRriEJMc-7uIuHtY-7" vertex="1">
          <mxGeometry y="70" width="160" height="20" as="geometry" />
        </mxCell>
        <mxCell id="cA0amRriEJMc-7uIuHtY-9" value="" style="line;strokeWidth=1;fillColor=none;align=left;verticalAlign=middle;spacingTop=-1;spacingLeft=3;spacingRight=3;rotatable=0;labelPosition=right;points=[];portConstraint=eastwest;" parent="cA0amRriEJMc-7uIuHtY-7" vertex="1">
          <mxGeometry y="90" width="160" height="10" as="geometry" />
        </mxCell>
        <mxCell id="cA0amRriEJMc-7uIuHtY-10" value="+ init(void* owner): int" style="text;strokeColor=none;fillColor=none;align=left;verticalAlign=top;spacingLeft=4;spacingRight=4;overflow=hidden;rotatable=0;points=[[0,0.5],[1,0.5]];portConstraint=eastwest;" parent="cA0amRriEJMc-7uIuHtY-7" vertex="1">
          <mxGeometry y="100" width="160" height="30" as="geometry" />
        </mxCell>
        <mxCell id="cA0amRriEJMc-7uIuHtY-13" value="+ start(void* hw): int" style="text;strokeColor=none;fillColor=none;align=left;verticalAlign=top;spacingLeft=4;spacingRight=4;overflow=hidden;rotatable=0;points=[[0,0.5],[1,0.5]];portConstraint=eastwest;" parent="cA0amRriEJMc-7uIuHtY-7" vertex="1">
          <mxGeometry y="130" width="160" height="30" as="geometry" />
        </mxCell>
        <mxCell id="cA0amRriEJMc-7uIuHtY-14" value="+ stop(void* hw): int" style="text;strokeColor=none;fillColor=none;align=left;verticalAlign=top;spacingLeft=4;spacingRight=4;overflow=hidden;rotatable=0;points=[[0,0.5],[1,0.5]];portConstraint=eastwest;" parent="cA0amRriEJMc-7uIuHtY-7" vertex="1">
          <mxGeometry y="160" width="160" height="30" as="geometry" />
        </mxCell>
        <mxCell id="cA0amRriEJMc-7uIuHtY-15" value="+ destroy(void* hw): int" style="text;strokeColor=none;fillColor=none;align=left;verticalAlign=top;spacingLeft=4;spacingRight=4;overflow=hidden;rotatable=0;points=[[0,0.5],[1,0.5]];portConstraint=eastwest;" parent="cA0amRriEJMc-7uIuHtY-7" vertex="1">
          <mxGeometry y="190" width="160" height="30" as="geometry" />
        </mxCell>
        <mxCell id="cA0amRriEJMc-7uIuHtY-16" value="+ on_event(void* hw): int" style="text;strokeColor=none;fillColor=none;align=left;verticalAlign=top;spacingLeft=4;spacingRight=4;overflow=hidden;rotatable=0;points=[[0,0.5],[1,0.5]];portConstraint=eastwest;" parent="cA0amRriEJMc-7uIuHtY-7" vertex="1">
          <mxGeometry y="220" width="160" height="30" as="geometry" />
        </mxCell>
        <mxCell id="cA0amRriEJMc-7uIuHtY-17" value="+ on_data(void* hw): int" style="text;strokeColor=none;fillColor=none;align=left;verticalAlign=top;spacingLeft=4;spacingRight=4;overflow=hidden;rotatable=0;points=[[0,0.5],[1,0.5]];portConstraint=eastwest;" parent="cA0amRriEJMc-7uIuHtY-7" vertex="1">
          <mxGeometry y="250" width="160" height="30" as="geometry" />
        </mxCell>
        <mxCell id="cA0amRriEJMc-7uIuHtY-42" style="edgeStyle=orthogonalEdgeStyle;rounded=0;orthogonalLoop=1;jettySize=auto;html=1;entryX=1;entryY=0.135;entryDx=0;entryDy=0;entryPerimeter=0;endArrow=classic;endFill=1;exitX=0;exitY=0.5;exitDx=0;exitDy=0;strokeWidth=2;strokeColor=#007FFF;" parent="1" source="cA0amRriEJMc-7uIuHtY-18" target="cA0amRriEJMc-7uIuHtY-39" edge="1">
          <mxGeometry relative="1" as="geometry">
            <Array as="points">
              <mxPoint x="150" y="355" />
              <mxPoint x="150" y="380" />
            </Array>
          </mxGeometry>
        </mxCell>
        <mxCell id="cA0amRriEJMc-7uIuHtY-18" value="on_http_event" style="whiteSpace=wrap;html=1;" parent="1" vertex="1">
          <mxGeometry x="190" y="342.5" width="120" height="25" as="geometry" />
        </mxCell>
        <mxCell id="cA0amRriEJMc-7uIuHtY-26" value="" style="edgeStyle=orthogonalEdgeStyle;rounded=0;orthogonalLoop=1;jettySize=auto;html=1;" parent="1" source="cA0amRriEJMc-7uIuHtY-20" target="cA0amRriEJMc-7uIuHtY-25" edge="1">
          <mxGeometry relative="1" as="geometry" />
        </mxCell>
        <mxCell id="cA0amRriEJMc-7uIuHtY-28" style="edgeStyle=orthogonalEdgeStyle;rounded=0;orthogonalLoop=1;jettySize=auto;html=1;entryX=0.5;entryY=0;entryDx=0;entryDy=0;" parent="1" source="cA0amRriEJMc-7uIuHtY-20" target="cA0amRriEJMc-7uIuHtY-27" edge="1">
          <mxGeometry relative="1" as="geometry" />
        </mxCell>
        <mxCell id="cA0amRriEJMc-7uIuHtY-20" value="handle_http_response" style="whiteSpace=wrap;html=1;" parent="1" vertex="1">
          <mxGeometry x="440" y="450" width="140" height="30" as="geometry" />
        </mxCell>
        <mxCell id="cA0amRriEJMc-7uIuHtY-41" style="edgeStyle=orthogonalEdgeStyle;rounded=0;orthogonalLoop=1;jettySize=auto;html=1;endArrow=none;endFill=0;strokeWidth=2;strokeColor=#FF8000;" parent="1" source="cA0amRriEJMc-7uIuHtY-22" edge="1">
          <mxGeometry relative="1" as="geometry">
            <mxPoint x="150" y="380" as="targetPoint" />
            <Array as="points">
              <mxPoint x="150" y="410" />
            </Array>
          </mxGeometry>
        </mxCell>
        <mxCell id="cA0amRriEJMc-7uIuHtY-22" value="handle_flv_frame" style="whiteSpace=wrap;html=1;" parent="1" vertex="1">
          <mxGeometry x="190" y="400" width="120" height="20" as="geometry" />
        </mxCell>
        <mxCell id="cA0amRriEJMc-7uIuHtY-25" value="2xx" style="whiteSpace=wrap;html=1;" parent="1" vertex="1">
          <mxGeometry x="450" y="510" width="50" height="30" as="geometry" />
        </mxCell>
        <mxCell id="cA0amRriEJMc-7uIuHtY-27" value="3xx" style="whiteSpace=wrap;html=1;" parent="1" vertex="1">
          <mxGeometry x="540" y="510" width="30" height="30" as="geometry" />
        </mxCell>
        <mxCell id="cA0amRriEJMc-7uIuHtY-32" style="edgeStyle=orthogonalEdgeStyle;rounded=0;orthogonalLoop=1;jettySize=auto;html=1;entryX=1;entryY=0.5;entryDx=0;entryDy=0;strokeColor=#007FFF;strokeWidth=2;" parent="1" source="cA0amRriEJMc-7uIuHtY-16" target="cA0amRriEJMc-7uIuHtY-18" edge="1">
          <mxGeometry relative="1" as="geometry" />
        </mxCell>
        <mxCell id="cA0amRriEJMc-7uIuHtY-33" style="edgeStyle=orthogonalEdgeStyle;rounded=0;orthogonalLoop=1;jettySize=auto;html=1;entryX=0;entryY=0.5;entryDx=0;entryDy=0;strokeWidth=2;strokeColor=#FF8000;" parent="1" source="cA0amRriEJMc-7uIuHtY-17" target="cA0amRriEJMc-7uIuHtY-20" edge="1">
          <mxGeometry relative="1" as="geometry" />
        </mxCell>
        <mxCell id="cA0amRriEJMc-7uIuHtY-34" style="edgeStyle=orthogonalEdgeStyle;rounded=0;orthogonalLoop=1;jettySize=auto;html=1;entryX=1;entryY=0.5;entryDx=0;entryDy=0;strokeColor=#FF8000;strokeWidth=2;" parent="1" source="cA0amRriEJMc-7uIuHtY-17" target="cA0amRriEJMc-7uIuHtY-22" edge="1">
          <mxGeometry relative="1" as="geometry" />
        </mxCell>
        <mxCell id="cA0amRriEJMc-7uIuHtY-36" value="HttpFlvStream" style="swimlane;fontStyle=1;align=center;verticalAlign=top;childLayout=stackLayout;horizontal=1;startSize=26;horizontalStack=0;resizeParent=1;resizeParentMax=0;resizeLast=0;collapsible=1;marginBottom=0;" parent="1" vertex="1">
          <mxGeometry x="-60" y="342.5" width="180" height="86" as="geometry" />
        </mxCell>
        <mxCell id="cA0amRriEJMc-7uIuHtY-38" value="" style="line;strokeWidth=1;fillColor=none;align=left;verticalAlign=middle;spacingTop=-1;spacingLeft=3;spacingRight=3;rotatable=0;labelPosition=right;points=[];portConstraint=eastwest;" parent="cA0amRriEJMc-7uIuHtY-36" vertex="1">
          <mxGeometry y="26" width="180" height="8" as="geometry" />
        </mxCell>
        <mxCell id="cA0amRriEJMc-7uIuHtY-39" value="+ HTTP_FLV_CB(type): type" style="text;strokeColor=none;fillColor=none;align=left;verticalAlign=top;spacingLeft=4;spacingRight=4;overflow=hidden;rotatable=0;points=[[0,0.5],[1,0.5]];portConstraint=eastwest;" parent="cA0amRriEJMc-7uIuHtY-36" vertex="1">
          <mxGeometry y="34" width="180" height="26" as="geometry" />
        </mxCell>
        <mxCell id="cA0amRriEJMc-7uIuHtY-112" value="+ _as: http_wrapper*" style="text;strokeColor=none;fillColor=none;align=left;verticalAlign=top;spacingLeft=4;spacingRight=4;overflow=hidden;rotatable=0;points=[[0,0.5],[1,0.5]];portConstraint=eastwest;" parent="cA0amRriEJMc-7uIuHtY-36" vertex="1">
          <mxGeometry y="60" width="180" height="26" as="geometry" />
        </mxCell>
        <mxCell id="cA0amRriEJMc-7uIuHtY-46" style="edgeStyle=orthogonalEdgeStyle;rounded=0;orthogonalLoop=1;jettySize=auto;html=1;entryX=0;entryY=0.5;entryDx=0;entryDy=0;endArrow=classic;endFill=1;" parent="1" target="cA0amRriEJMc-7uIuHtY-6" edge="1">
          <mxGeometry relative="1" as="geometry">
            <mxPoint x="1035" y="438.5" as="sourcePoint" />
          </mxGeometry>
        </mxCell>
        <mxCell id="cA0amRriEJMc-7uIuHtY-68" style="edgeStyle=orthogonalEdgeStyle;rounded=0;orthogonalLoop=1;jettySize=auto;html=1;fontFamily=Helvetica;fontSize=12;fontColor=#1A1A1A;exitX=0;exitY=0.5;exitDx=0;exitDy=0;strokeColor=#007FFF;strokeWidth=2;" parent="1" source="cA0amRriEJMc-7uIuHtY-48" target="cA0amRriEJMc-7uIuHtY-16" edge="1">
          <mxGeometry relative="1" as="geometry">
            <Array as="points">
              <mxPoint x="640" y="402" />
              <mxPoint x="640" y="365" />
            </Array>
          </mxGeometry>
        </mxCell>
        <mxCell id="cA0amRriEJMc-7uIuHtY-48" value="http_cb_event" style="whiteSpace=wrap;html=1;" parent="1" vertex="1">
          <mxGeometry x="650" y="393.5" width="120" height="30" as="geometry" />
        </mxCell>
        <mxCell id="cA0amRriEJMc-7uIuHtY-69" style="edgeStyle=orthogonalEdgeStyle;rounded=0;orthogonalLoop=1;jettySize=auto;html=1;entryX=1;entryY=0.5;entryDx=0;entryDy=0;fontFamily=Helvetica;fontSize=12;fontColor=#1A1A1A;exitX=0;exitY=0.5;exitDx=0;exitDy=0;strokeColor=#FF8000;strokeWidth=2;" parent="1" source="cA0amRriEJMc-7uIuHtY-49" target="cA0amRriEJMc-7uIuHtY-17" edge="1">
          <mxGeometry relative="1" as="geometry" />
        </mxCell>
        <mxCell id="cA0amRriEJMc-7uIuHtY-49" value="http_cb_data" style="whiteSpace=wrap;html=1;" parent="1" vertex="1">
          <mxGeometry x="650" y="440" width="120" height="30" as="geometry" />
        </mxCell>
        <mxCell id="cA0amRriEJMc-7uIuHtY-50" value="AsyncSock" style="swimlane;fontStyle=0;childLayout=stackLayout;horizontal=1;startSize=26;fillColor=none;horizontalStack=0;resizeParent=1;resizeParentMax=0;resizeLast=0;collapsible=1;marginBottom=0;" parent="1" vertex="1">
          <mxGeometry x="895" y="220" width="140" height="48" as="geometry" />
        </mxCell>
        <mxCell id="cA0amRriEJMc-7uIuHtY-53" value="+ mem: MemoryEntry" style="text;strokeColor=none;fillColor=none;align=left;verticalAlign=top;spacingLeft=4;spacingRight=4;overflow=hidden;rotatable=0;points=[[0,0.5],[1,0.5]];portConstraint=eastwest;" parent="cA0amRriEJMc-7uIuHtY-50" vertex="1">
          <mxGeometry y="26" width="140" height="22" as="geometry" />
        </mxCell>
        <mxCell id="cA0amRriEJMc-7uIuHtY-55" value="h3client" style="swimlane;fontStyle=0;childLayout=stackLayout;horizontal=1;startSize=26;fillColor=none;horizontalStack=0;resizeParent=1;resizeParentMax=0;resizeLast=0;collapsible=1;marginBottom=0;" parent="1" vertex="1">
          <mxGeometry x="895" y="380" width="140" height="126" as="geometry" />
        </mxCell>
        <mxCell id="cA0amRriEJMc-7uIuHtY-56" value="+ cb_event: void" style="text;strokeColor=none;fillColor=none;align=left;verticalAlign=top;spacingLeft=4;spacingRight=4;overflow=hidden;rotatable=0;points=[[0,0.5],[1,0.5]];portConstraint=eastwest;" parent="cA0amRriEJMc-7uIuHtY-55" vertex="1">
          <mxGeometry y="26" width="140" height="26" as="geometry" />
        </mxCell>
        <mxCell id="cA0amRriEJMc-7uIuHtY-57" value="+ cb_data: void" style="text;strokeColor=none;fillColor=none;align=left;verticalAlign=top;spacingLeft=4;spacingRight=4;overflow=hidden;rotatable=0;points=[[0,0.5],[1,0.5]];portConstraint=eastwest;" parent="cA0amRriEJMc-7uIuHtY-55" vertex="1">
          <mxGeometry y="52" width="140" height="26" as="geometry" />
        </mxCell>
        <mxCell id="cA0amRriEJMc-7uIuHtY-58" value="+ mem: MemoryEntry" style="text;strokeColor=none;fillColor=none;align=left;verticalAlign=top;spacingLeft=4;spacingRight=4;overflow=hidden;rotatable=0;points=[[0,0.5],[1,0.5]];portConstraint=eastwest;" parent="cA0amRriEJMc-7uIuHtY-55" vertex="1">
          <mxGeometry y="78" width="140" height="22" as="geometry" />
        </mxCell>
        <mxCell id="cA0amRriEJMc-7uIuHtY-59" value="+ owner: void*" style="text;strokeColor=none;fillColor=none;align=left;verticalAlign=top;spacingLeft=4;spacingRight=4;overflow=hidden;rotatable=0;points=[[0,0.5],[1,0.5]];portConstraint=eastwest;" parent="cA0amRriEJMc-7uIuHtY-55" vertex="1">
          <mxGeometry y="100" width="140" height="26" as="geometry" />
        </mxCell>
        <mxCell id="cA0amRriEJMc-7uIuHtY-61" style="edgeStyle=orthogonalEdgeStyle;rounded=0;orthogonalLoop=1;jettySize=auto;html=1;entryX=0;entryY=0.5;entryDx=0;entryDy=0;endArrow=classic;endFill=1;" parent="1" source="cA0amRriEJMc-7uIuHtY-53" target="cA0amRriEJMc-7uIuHtY-5" edge="1">
          <mxGeometry relative="1" as="geometry" />
        </mxCell>
        <mxCell id="cA0amRriEJMc-7uIuHtY-65" value="&lt;pre style=&quot;font-family: &amp;quot;JetBrains Mono&amp;quot;, monospace; font-size: 9.8pt;&quot;&gt;&lt;span style=&quot;background-color: rgb(255, 255, 255);&quot;&gt;&lt;font color=&quot;#1A1A1A&quot;&gt;as_mgr_init(http_cb_event, http_cb_data)&lt;/font&gt;&lt;/span&gt;&lt;/pre&gt;" style="text;whiteSpace=wrap;html=1;" parent="1" vertex="1">
          <mxGeometry x="-490" y="130" width="350" height="50" as="geometry" />
        </mxCell>
        <mxCell id="cA0amRriEJMc-7uIuHtY-66" style="edgeStyle=orthogonalEdgeStyle;rounded=0;orthogonalLoop=1;jettySize=auto;html=1;entryX=1;entryY=0.5;entryDx=0;entryDy=0;fontFamily=Helvetica;fontSize=12;fontColor=#1A1A1A;strokeColor=#007FFF;strokeWidth=2;" parent="1" source="cA0amRriEJMc-7uIuHtY-56" target="cA0amRriEJMc-7uIuHtY-48" edge="1">
          <mxGeometry relative="1" as="geometry">
            <Array as="points">
              <mxPoint x="840" y="419" />
              <mxPoint x="840" y="409" />
              <mxPoint x="770" y="409" />
            </Array>
          </mxGeometry>
        </mxCell>
        <mxCell id="cA0amRriEJMc-7uIuHtY-67" style="edgeStyle=orthogonalEdgeStyle;rounded=0;orthogonalLoop=1;jettySize=auto;html=1;entryX=1;entryY=0.5;entryDx=0;entryDy=0;fontFamily=Helvetica;fontSize=12;fontColor=#1A1A1A;" parent="1" source="cA0amRriEJMc-7uIuHtY-57" target="cA0amRriEJMc-7uIuHtY-49" edge="1">
          <mxGeometry relative="1" as="geometry" />
        </mxCell>
        <mxCell id="cA0amRriEJMc-7uIuHtY-71" value="&lt;font style=&quot;font-size: 25px;&quot;&gt;&lt;b&gt;HTTPFLV&lt;/b&gt;&lt;/font&gt;" style="text;html=1;strokeColor=none;fillColor=none;align=center;verticalAlign=middle;whiteSpace=wrap;rounded=0;fontFamily=Helvetica;fontSize=12;fontColor=#1A1A1A;" parent="1" vertex="1">
          <mxGeometry x="105" y="120" width="60" height="30" as="geometry" />
        </mxCell>
        <mxCell id="cA0amRriEJMc-7uIuHtY-73" value="&lt;font style=&quot;font-size: 25px;&quot;&gt;&lt;b&gt;HTTPFLV_MGR&lt;/b&gt;&lt;/font&gt;" style="text;html=1;strokeColor=none;fillColor=none;align=center;verticalAlign=middle;whiteSpace=wrap;rounded=0;fontFamily=Helvetica;fontSize=12;fontColor=#1A1A1A;" parent="1" vertex="1">
          <mxGeometry x="-390" y="100" width="80" height="40" as="geometry" />
        </mxCell>
        <mxCell id="cA0amRriEJMc-7uIuHtY-75" value="HTTP_WRAPPER" style="text;html=1;strokeColor=none;fillColor=none;align=center;verticalAlign=middle;whiteSpace=wrap;rounded=0;fontFamily=Helvetica;fontSize=25;fontColor=#1A1A1A;" parent="1" vertex="1">
          <mxGeometry x="580" y="100" width="60" height="30" as="geometry" />
        </mxCell>
        <mxCell id="cA0amRriEJMc-7uIuHtY-77" value="HTTP" style="text;html=1;strokeColor=none;fillColor=none;align=center;verticalAlign=middle;whiteSpace=wrap;rounded=0;fontFamily=Helvetica;fontSize=25;fontColor=#1A1A1A;" parent="1" vertex="1">
          <mxGeometry x="1000" y="100" width="60" height="30" as="geometry" />
        </mxCell>
        <mxCell id="cA0amRriEJMc-7uIuHtY-79" value="H1" style="text;html=1;strokeColor=none;fillColor=none;align=center;verticalAlign=middle;whiteSpace=wrap;rounded=0;fontFamily=Helvetica;fontSize=25;fontColor=#1A1A1A;" parent="1" vertex="1">
          <mxGeometry x="1000" y="140" width="60" height="30" as="geometry" />
        </mxCell>
        <mxCell id="cA0amRriEJMc-7uIuHtY-80" value="" style="rounded=1;whiteSpace=wrap;html=1;fontFamily=Helvetica;fontSize=25;fontColor=#1A1A1A;fillColor=none;gradientColor=none;" parent="1" vertex="1">
          <mxGeometry x="875" y="305" width="330" height="245" as="geometry" />
        </mxCell>
        <mxCell id="cA0amRriEJMc-7uIuHtY-81" value="H3" style="text;html=1;strokeColor=none;fillColor=none;align=center;verticalAlign=middle;whiteSpace=wrap;rounded=0;fontFamily=Helvetica;fontSize=25;fontColor=#1A1A1A;" parent="1" vertex="1">
          <mxGeometry x="1005" y="510" width="60" height="30" as="geometry" />
        </mxCell>
        <mxCell id="cA0amRriEJMc-7uIuHtY-84" value="DNS CACHE" style="text;html=1;strokeColor=none;fillColor=none;align=center;verticalAlign=middle;whiteSpace=wrap;rounded=0;fontFamily=Helvetica;fontSize=25;fontColor=#1A1A1A;" parent="1" vertex="1">
          <mxGeometry x="1407.5" y="100" width="155" height="30" as="geometry" />
        </mxCell>
        <mxCell id="cA0amRriEJMc-7uIuHtY-85" value="getaddrinfo" style="rounded=0;whiteSpace=wrap;html=1;fontFamily=Helvetica;fontSize=25;fontColor=#1A1A1A;fillColor=none;gradientColor=none;" parent="1" vertex="1">
          <mxGeometry x="1397.5" y="202" width="155" height="50" as="geometry" />
        </mxCell>
        <mxCell id="cA0amRriEJMc-7uIuHtY-86" value="&lt;pre style=&quot;font-family: &amp;quot;JetBrains Mono&amp;quot;, monospace; font-size: 15.0667px;&quot;&gt;&lt;font style=&quot;font-size: 15.0667px;&quot;&gt;&lt;span style=&quot;background-color: rgb(255, 255, 255);&quot;&gt;&lt;font style=&quot;font-size: 15.0667px;&quot; color=&quot;#1A1A1A&quot;&gt;http_host_name_list-&amp;gt;_queries&lt;/font&gt;&lt;/span&gt;&lt;/font&gt;&lt;/pre&gt;" style="rounded=0;whiteSpace=wrap;html=1;fontFamily=Helvetica;fontSize=25;fontColor=#1A1A1A;fillColor=none;gradientColor=none;strokeColor=#1A1A1A;" parent="1" vertex="1">
          <mxGeometry x="1340" y="282.5" width="270" height="60" as="geometry" />
        </mxCell>
        <mxCell id="cA0amRriEJMc-7uIuHtY-87" value="&lt;pre style=&quot;font-family: &amp;quot;JetBrains Mono&amp;quot;, monospace; font-size: 15.0667px;&quot;&gt;&lt;font style=&quot;font-size: 15.0667px;&quot;&gt;&lt;span style=&quot;background-color: rgb(255, 255, 255);&quot;&gt;&lt;font style=&quot;font-size: 15.0667px;&quot; color=&quot;#1A1A1A&quot;&gt;http_host_name_list-&amp;gt;_results&lt;/font&gt;&lt;/span&gt;&lt;/font&gt;&lt;/pre&gt;" style="rounded=0;whiteSpace=wrap;html=1;fontFamily=Helvetica;fontSize=25;fontColor=#1A1A1A;fillColor=none;gradientColor=none;strokeColor=#1A1A1A;" parent="1" vertex="1">
          <mxGeometry x="1340" y="357.5" width="270" height="60" as="geometry" />
        </mxCell>
        <mxCell id="cA0amRriEJMc-7uIuHtY-114" style="edgeStyle=orthogonalEdgeStyle;rounded=0;orthogonalLoop=1;jettySize=auto;html=1;entryX=0;entryY=0.5;entryDx=0;entryDy=0;fontFamily=Helvetica;fontSize=25;fontColor=#1A1A1A;strokeColor=#FF3333;strokeWidth=2;" parent="1" source="cA0amRriEJMc-7uIuHtY-89" target="cA0amRriEJMc-7uIuHtY-110" edge="1">
          <mxGeometry relative="1" as="geometry" />
        </mxCell>
        <mxCell id="cA0amRriEJMc-7uIuHtY-89" value="httpflv_mgr_start(void*)" style="text;html=1;strokeColor=none;fillColor=none;align=center;verticalAlign=middle;whiteSpace=wrap;rounded=0;fontFamily=Helvetica;fontSize=15.0667;fontColor=#1A1A1A;" parent="1" vertex="1">
          <mxGeometry x="-440" y="212" width="180" height="30" as="geometry" />
        </mxCell>
        <mxCell id="cA0amRriEJMc-7uIuHtY-115" style="edgeStyle=orthogonalEdgeStyle;rounded=0;orthogonalLoop=1;jettySize=auto;html=1;entryX=0;entryY=0.5;entryDx=0;entryDy=0;fontFamily=Helvetica;fontSize=25;fontColor=#1A1A1A;strokeColor=#33FF33;strokeWidth=2;" parent="1" source="cA0amRriEJMc-7uIuHtY-90" target="cA0amRriEJMc-7uIuHtY-111" edge="1">
          <mxGeometry relative="1" as="geometry" />
        </mxCell>
        <mxCell id="cA0amRriEJMc-7uIuHtY-90" value="httpflv_mgr_stop(void*)" style="text;html=1;strokeColor=none;fillColor=none;align=center;verticalAlign=middle;whiteSpace=wrap;rounded=0;fontFamily=Helvetica;fontSize=15.0667;fontColor=#1A1A1A;" parent="1" vertex="1">
          <mxGeometry x="-440" y="275" width="180" height="30" as="geometry" />
        </mxCell>
        <mxCell id="cA0amRriEJMc-7uIuHtY-91" value="H1 Looper" style="text;html=1;strokeColor=none;fillColor=none;align=center;verticalAlign=middle;whiteSpace=wrap;rounded=0;fontFamily=Helvetica;fontSize=15.0667;fontColor=#1A1A1A;" parent="1" vertex="1">
          <mxGeometry x="950" y="-320" width="160" height="30" as="geometry" />
        </mxCell>
        <mxCell id="cA0amRriEJMc-7uIuHtY-94" style="edgeStyle=orthogonalEdgeStyle;rounded=0;orthogonalLoop=1;jettySize=auto;html=1;dashed=1;fontFamily=Helvetica;fontSize=15.0667;fontColor=#1A1A1A;" parent="1" source="cA0amRriEJMc-7uIuHtY-92" target="cA0amRriEJMc-7uIuHtY-93" edge="1">
          <mxGeometry relative="1" as="geometry" />
        </mxCell>
        <mxCell id="cA0amRriEJMc-7uIuHtY-92" value="handle_httpflv_task" style="rounded=0;whiteSpace=wrap;html=1;fontFamily=Helvetica;fontSize=15.0667;fontColor=#1A1A1A;fillColor=none;gradientColor=none;" parent="1" vertex="1">
          <mxGeometry x="1065" y="-160" width="145" height="40" as="geometry" />
        </mxCell>
        <mxCell id="cA0amRriEJMc-7uIuHtY-95" style="edgeStyle=orthogonalEdgeStyle;rounded=0;orthogonalLoop=1;jettySize=auto;html=1;entryX=0.5;entryY=0;entryDx=0;entryDy=0;fontFamily=Helvetica;fontSize=15.0667;fontColor=#1A1A1A;" parent="1" source="cA0amRriEJMc-7uIuHtY-93" target="cA0amRriEJMc-7uIuHtY-92" edge="1">
          <mxGeometry relative="1" as="geometry">
            <Array as="points">
              <mxPoint x="1137" y="-40" />
              <mxPoint x="1230" y="-40" />
              <mxPoint x="1230" y="-180" />
              <mxPoint x="1137" y="-180" />
            </Array>
          </mxGeometry>
        </mxCell>
        <mxCell id="cA0amRriEJMc-7uIuHtY-93" value="as_mgr_loop()" style="rounded=0;whiteSpace=wrap;html=1;fontFamily=Helvetica;fontSize=15.0667;fontColor=#1A1A1A;fillColor=none;gradientColor=none;" parent="1" vertex="1">
          <mxGeometry x="1065" y="-90" width="145" height="40" as="geometry" />
        </mxCell>
        <mxCell id="cA0amRriEJMc-7uIuHtY-97" value="http_network_loop" style="text;html=1;strokeColor=none;fillColor=none;align=center;verticalAlign=middle;whiteSpace=wrap;rounded=0;fontFamily=Helvetica;fontSize=15.0667;fontColor=#1A1A1A;" parent="1" vertex="1">
          <mxGeometry x="1110" y="-230" width="60" height="30" as="geometry" />
        </mxCell>
        <mxCell id="cA0amRriEJMc-7uIuHtY-104" style="edgeStyle=orthogonalEdgeStyle;rounded=0;orthogonalLoop=1;jettySize=auto;html=1;entryX=0;entryY=0.5;entryDx=0;entryDy=0;fontFamily=Helvetica;fontSize=15.0667;fontColor=#1A1A1A;" parent="1" source="cA0amRriEJMc-7uIuHtY-98" target="cA0amRriEJMc-7uIuHtY-102" edge="1">
          <mxGeometry relative="1" as="geometry" />
        </mxCell>
        <mxCell id="cA0amRriEJMc-7uIuHtY-98" value="add_h1_task" style="rounded=0;whiteSpace=wrap;html=1;fontFamily=Helvetica;fontSize=15.0667;fontColor=#1A1A1A;fillColor=none;gradientColor=none;" parent="1" vertex="1">
          <mxGeometry x="820" y="-167.5" width="90" height="17.5" as="geometry" />
        </mxCell>
        <mxCell id="cA0amRriEJMc-7uIuHtY-105" style="edgeStyle=orthogonalEdgeStyle;rounded=0;orthogonalLoop=1;jettySize=auto;html=1;entryX=0;entryY=0.5;entryDx=0;entryDy=0;fontFamily=Helvetica;fontSize=15.0667;fontColor=#1A1A1A;" parent="1" source="cA0amRriEJMc-7uIuHtY-101" target="cA0amRriEJMc-7uIuHtY-102" edge="1">
          <mxGeometry relative="1" as="geometry" />
        </mxCell>
        <mxCell id="cA0amRriEJMc-7uIuHtY-101" value="del_h1_task" style="rounded=0;whiteSpace=wrap;html=1;fontFamily=Helvetica;fontSize=15.0667;fontColor=#1A1A1A;fillColor=none;gradientColor=none;" parent="1" vertex="1">
          <mxGeometry x="820" y="-130" width="90" height="17.5" as="geometry" />
        </mxCell>
        <mxCell id="cA0amRriEJMc-7uIuHtY-103" style="edgeStyle=orthogonalEdgeStyle;rounded=0;orthogonalLoop=1;jettySize=auto;html=1;fontFamily=Helvetica;fontSize=15.0667;fontColor=#1A1A1A;entryX=0;entryY=0.509;entryDx=0;entryDy=0;entryPerimeter=0;" parent="1" source="cA0amRriEJMc-7uIuHtY-102" target="cA0amRriEJMc-7uIuHtY-92" edge="1">
          <mxGeometry relative="1" as="geometry">
            <mxPoint x="1050" y="-121.187908496732" as="targetPoint" />
            <Array as="points">
              <mxPoint x="1060" y="-140" />
              <mxPoint x="1065" y="-140" />
            </Array>
          </mxGeometry>
        </mxCell>
        <mxCell id="cA0amRriEJMc-7uIuHtY-102" value="add_flv_task" style="rounded=0;whiteSpace=wrap;html=1;fontFamily=Helvetica;fontSize=15.0667;fontColor=#1A1A1A;fillColor=none;gradientColor=none;" parent="1" vertex="1">
          <mxGeometry x="940" y="-148.75" width="90" height="17.5" as="geometry" />
        </mxCell>
        <mxCell id="cA0amRriEJMc-7uIuHtY-107" value="进程单例，处理h1请求任务和实现" style="text;html=1;strokeColor=none;fillColor=none;align=center;verticalAlign=middle;whiteSpace=wrap;rounded=0;fontFamily=Helvetica;fontSize=15.0667;fontColor=#1A1A1A;" parent="1" vertex="1">
          <mxGeometry x="850" y="-290" width="290" height="30" as="geometry" />
        </mxCell>
        <mxCell id="cA0amRriEJMc-7uIuHtY-108" value="进程单例，定时刷新_result列表中dns" style="text;html=1;strokeColor=none;fillColor=none;align=center;verticalAlign=middle;whiteSpace=wrap;rounded=0;fontFamily=Helvetica;fontSize=15.0667;fontColor=#1A1A1A;" parent="1" vertex="1">
          <mxGeometry x="1360" y="140" width="260" height="30" as="geometry" />
        </mxCell>
        <mxCell id="cA0amRriEJMc-7uIuHtY-116" style="edgeStyle=orthogonalEdgeStyle;rounded=0;orthogonalLoop=1;jettySize=auto;html=1;entryX=0;entryY=0.5;entryDx=0;entryDy=0;fontFamily=Helvetica;fontSize=25;fontColor=#1A1A1A;exitX=1;exitY=0.5;exitDx=0;exitDy=0;strokeWidth=2;strokeColor=#FF3333;" parent="1" source="cA0amRriEJMc-7uIuHtY-110" target="cA0amRriEJMc-7uIuHtY-13" edge="1">
          <mxGeometry relative="1" as="geometry" />
        </mxCell>
        <mxCell id="cA0amRriEJMc-7uIuHtY-110" value="http_flv_open(HttpFlvStream* stream)" style="text;html=1;strokeColor=none;fillColor=none;align=center;verticalAlign=middle;whiteSpace=wrap;rounded=0;fontFamily=Helvetica;fontSize=15.0667;fontColor=#1A1A1A;" parent="1" vertex="1">
          <mxGeometry x="-10" y="212" width="260" height="30" as="geometry" />
        </mxCell>
        <mxCell id="cA0amRriEJMc-7uIuHtY-117" style="edgeStyle=orthogonalEdgeStyle;rounded=0;orthogonalLoop=1;jettySize=auto;html=1;entryX=0;entryY=0.5;entryDx=0;entryDy=0;fontFamily=Helvetica;fontSize=25;fontColor=#1A1A1A;strokeWidth=2;strokeColor=#33FF33;" parent="1" source="cA0amRriEJMc-7uIuHtY-111" target="cA0amRriEJMc-7uIuHtY-14" edge="1">
          <mxGeometry relative="1" as="geometry" />
        </mxCell>
        <mxCell id="cA0amRriEJMc-7uIuHtY-111" value="http_flv_close(HttpFlvStream* stream)" style="text;html=1;strokeColor=none;fillColor=none;align=center;verticalAlign=middle;whiteSpace=wrap;rounded=0;fontFamily=Helvetica;fontSize=15.0667;fontColor=#1A1A1A;" parent="1" vertex="1">
          <mxGeometry x="-10" y="275" width="260" height="30" as="geometry" />
        </mxCell>
        <mxCell id="cA0amRriEJMc-7uIuHtY-118" value="h1_start" style="whiteSpace=wrap;html=1;" parent="1" vertex="1">
          <mxGeometry x="895" y="170" width="120" height="20" as="geometry" />
        </mxCell>
        <mxCell id="cA0amRriEJMc-7uIuHtY-119" value="h1_stop" style="whiteSpace=wrap;html=1;" parent="1" vertex="1">
          <mxGeometry x="895" y="195" width="120" height="20" as="geometry" />
        </mxCell>
        <mxCell id="cA0amRriEJMc-7uIuHtY-120" value="h3_start" style="whiteSpace=wrap;html=1;" parent="1" vertex="1">
          <mxGeometry x="895" y="324" width="120" height="20" as="geometry" />
        </mxCell>
        <mxCell id="cA0amRriEJMc-7uIuHtY-121" value="h3_stop" style="whiteSpace=wrap;html=1;" parent="1" vertex="1">
          <mxGeometry x="895" y="349" width="120" height="20" as="geometry" />
        </mxCell>
        <mxCell id="cA0amRriEJMc-7uIuHtY-122" style="edgeStyle=orthogonalEdgeStyle;rounded=0;orthogonalLoop=1;jettySize=auto;html=1;entryX=0;entryY=0.5;entryDx=0;entryDy=0;fontFamily=Helvetica;fontSize=25;fontColor=#1A1A1A;strokeColor=#FF3333;strokeWidth=2;" parent="1" source="cA0amRriEJMc-7uIuHtY-13" target="cA0amRriEJMc-7uIuHtY-118" edge="1">
          <mxGeometry relative="1" as="geometry">
            <Array as="points">
              <mxPoint x="810" y="275" />
              <mxPoint x="810" y="180" />
            </Array>
          </mxGeometry>
        </mxCell>
        <mxCell id="cA0amRriEJMc-7uIuHtY-123" style="edgeStyle=orthogonalEdgeStyle;rounded=0;orthogonalLoop=1;jettySize=auto;html=1;entryX=0;entryY=0.5;entryDx=0;entryDy=0;fontFamily=Helvetica;fontSize=25;fontColor=#1A1A1A;strokeColor=#33FF33;strokeWidth=2;" parent="1" source="cA0amRriEJMc-7uIuHtY-14" target="cA0amRriEJMc-7uIuHtY-119" edge="1">
          <mxGeometry relative="1" as="geometry">
            <Array as="points">
              <mxPoint x="790" y="305" />
              <mxPoint x="790" y="205" />
            </Array>
          </mxGeometry>
        </mxCell>
        <mxCell id="cA0amRriEJMc-7uIuHtY-124" style="edgeStyle=orthogonalEdgeStyle;rounded=0;orthogonalLoop=1;jettySize=auto;html=1;entryX=0;entryY=0.5;entryDx=0;entryDy=0;fontFamily=Helvetica;fontSize=25;fontColor=#1A1A1A;strokeColor=#FF3333;strokeWidth=2;" parent="1" source="cA0amRriEJMc-7uIuHtY-13" target="cA0amRriEJMc-7uIuHtY-120" edge="1">
          <mxGeometry relative="1" as="geometry">
            <Array as="points">
              <mxPoint x="810" y="275" />
              <mxPoint x="810" y="334" />
            </Array>
          </mxGeometry>
        </mxCell>
        <mxCell id="cA0amRriEJMc-7uIuHtY-126" style="edgeStyle=orthogonalEdgeStyle;rounded=0;orthogonalLoop=1;jettySize=auto;html=1;entryX=0;entryY=0.5;entryDx=0;entryDy=0;fontFamily=Helvetica;fontSize=25;fontColor=#1A1A1A;strokeWidth=2;strokeColor=#33FF33;" parent="1" source="cA0amRriEJMc-7uIuHtY-14" target="cA0amRriEJMc-7uIuHtY-121" edge="1">
          <mxGeometry relative="1" as="geometry">
            <Array as="points">
              <mxPoint x="790" y="305" />
              <mxPoint x="790" y="359" />
            </Array>
          </mxGeometry>
        </mxCell>
        <mxCell id="sgj0Pk3TnUekTyNWO7hc-7" style="edgeStyle=orthogonalEdgeStyle;rounded=0;orthogonalLoop=1;jettySize=auto;html=1;exitX=0;exitY=0.5;exitDx=0;exitDy=0;entryX=0;entryY=0.75;entryDx=0;entryDy=0;" edge="1" parent="1" source="sgj0Pk3TnUekTyNWO7hc-5" target="sgj0Pk3TnUekTyNWO7hc-4">
          <mxGeometry relative="1" as="geometry">
            <Array as="points">
              <mxPoint x="150" y="790" />
              <mxPoint x="150" y="740" />
            </Array>
          </mxGeometry>
        </mxCell>
        <mxCell id="sgj0Pk3TnUekTyNWO7hc-8" style="edgeStyle=orthogonalEdgeStyle;rounded=0;orthogonalLoop=1;jettySize=auto;html=1;exitX=1;exitY=0.5;exitDx=0;exitDy=0;entryX=0;entryY=0.75;entryDx=0;entryDy=0;" edge="1" parent="1" source="sgj0Pk3TnUekTyNWO7hc-1" target="sgj0Pk3TnUekTyNWO7hc-6">
          <mxGeometry relative="1" as="geometry" />
        </mxCell>
        <mxCell id="sgj0Pk3TnUekTyNWO7hc-29" value="" style="edgeStyle=orthogonalEdgeStyle;rounded=0;orthogonalLoop=1;jettySize=auto;html=1;" edge="1" parent="1" source="sgj0Pk3TnUekTyNWO7hc-1" target="sgj0Pk3TnUekTyNWO7hc-5">
          <mxGeometry relative="1" as="geometry" />
        </mxCell>
        <mxCell id="sgj0Pk3TnUekTyNWO7hc-1" value="&lt;div&gt;parse_flv_frame&lt;/div&gt;" style="rounded=0;whiteSpace=wrap;html=1;" vertex="1" parent="1">
          <mxGeometry x="-10" y="775" width="140" height="30" as="geometry" />
        </mxCell>
        <mxCell id="sgj0Pk3TnUekTyNWO7hc-3" style="edgeStyle=orthogonalEdgeStyle;rounded=0;orthogonalLoop=1;jettySize=auto;html=1;" edge="1" parent="1" source="sgj0Pk3TnUekTyNWO7hc-2">
          <mxGeometry relative="1" as="geometry">
            <mxPoint x="-10" y="790" as="targetPoint" />
          </mxGeometry>
        </mxCell>
        <mxCell id="sgj0Pk3TnUekTyNWO7hc-2" value="handle_flv_frame" style="rounded=0;whiteSpace=wrap;html=1;" vertex="1" parent="1">
          <mxGeometry x="-190" y="775" width="130" height="30" as="geometry" />
        </mxCell>
        <mxCell id="sgj0Pk3TnUekTyNWO7hc-16" value="" style="edgeStyle=orthogonalEdgeStyle;rounded=0;orthogonalLoop=1;jettySize=auto;html=1;" edge="1" parent="1" source="sgj0Pk3TnUekTyNWO7hc-4" target="sgj0Pk3TnUekTyNWO7hc-13">
          <mxGeometry relative="1" as="geometry" />
        </mxCell>
        <mxCell id="sgj0Pk3TnUekTyNWO7hc-4" value="&lt;div&gt;header&lt;/div&gt;" style="rounded=0;whiteSpace=wrap;html=1;" vertex="1" parent="1">
          <mxGeometry x="175" y="725" width="105" height="20" as="geometry" />
        </mxCell>
        <mxCell id="sgj0Pk3TnUekTyNWO7hc-19" value="" style="edgeStyle=orthogonalEdgeStyle;rounded=0;orthogonalLoop=1;jettySize=auto;html=1;" edge="1" parent="1" source="sgj0Pk3TnUekTyNWO7hc-5" target="sgj0Pk3TnUekTyNWO7hc-14">
          <mxGeometry relative="1" as="geometry" />
        </mxCell>
        <mxCell id="sgj0Pk3TnUekTyNWO7hc-5" value="&lt;div&gt;video&lt;/div&gt;" style="rounded=0;whiteSpace=wrap;html=1;" vertex="1" parent="1">
          <mxGeometry x="175" y="780" width="100" height="20" as="geometry" />
        </mxCell>
        <mxCell id="sgj0Pk3TnUekTyNWO7hc-18" value="" style="edgeStyle=orthogonalEdgeStyle;rounded=0;orthogonalLoop=1;jettySize=auto;html=1;" edge="1" parent="1" source="sgj0Pk3TnUekTyNWO7hc-6" target="sgj0Pk3TnUekTyNWO7hc-15">
          <mxGeometry relative="1" as="geometry" />
        </mxCell>
        <mxCell id="sgj0Pk3TnUekTyNWO7hc-6" value="&lt;div&gt;audio&lt;/div&gt;" style="rounded=0;whiteSpace=wrap;html=1;" vertex="1" parent="1">
          <mxGeometry x="170" y="835" width="110" height="20" as="geometry" />
        </mxCell>
        <mxCell id="sgj0Pk3TnUekTyNWO7hc-13" value="handle extradata" style="rounded=0;whiteSpace=wrap;html=1;" vertex="1" parent="1">
          <mxGeometry x="340" y="720" width="120" height="30" as="geometry" />
        </mxCell>
        <mxCell id="sgj0Pk3TnUekTyNWO7hc-22" value="" style="edgeStyle=orthogonalEdgeStyle;rounded=0;orthogonalLoop=1;jettySize=auto;html=1;" edge="1" parent="1" source="sgj0Pk3TnUekTyNWO7hc-14" target="sgj0Pk3TnUekTyNWO7hc-20">
          <mxGeometry relative="1" as="geometry" />
        </mxCell>
        <mxCell id="sgj0Pk3TnUekTyNWO7hc-14" value="init video codec" style="rounded=0;whiteSpace=wrap;html=1;" vertex="1" parent="1">
          <mxGeometry x="340" y="775" width="120" height="30" as="geometry" />
        </mxCell>
        <mxCell id="sgj0Pk3TnUekTyNWO7hc-23" value="" style="edgeStyle=orthogonalEdgeStyle;rounded=0;orthogonalLoop=1;jettySize=auto;html=1;" edge="1" parent="1" source="sgj0Pk3TnUekTyNWO7hc-15" target="sgj0Pk3TnUekTyNWO7hc-21">
          <mxGeometry relative="1" as="geometry" />
        </mxCell>
        <mxCell id="sgj0Pk3TnUekTyNWO7hc-15" value="&lt;div&gt;init audio codec&lt;/div&gt;" style="rounded=0;whiteSpace=wrap;html=1;" vertex="1" parent="1">
          <mxGeometry x="340" y="830" width="120" height="30" as="geometry" />
        </mxCell>
        <mxCell id="sgj0Pk3TnUekTyNWO7hc-26" value="" style="edgeStyle=orthogonalEdgeStyle;rounded=0;orthogonalLoop=1;jettySize=auto;html=1;" edge="1" parent="1" source="sgj0Pk3TnUekTyNWO7hc-20" target="sgj0Pk3TnUekTyNWO7hc-24">
          <mxGeometry relative="1" as="geometry" />
        </mxCell>
        <mxCell id="sgj0Pk3TnUekTyNWO7hc-20" value="queue v packet" style="rounded=0;whiteSpace=wrap;html=1;" vertex="1" parent="1">
          <mxGeometry x="495" y="775" width="120" height="30" as="geometry" />
        </mxCell>
        <mxCell id="sgj0Pk3TnUekTyNWO7hc-27" value="" style="edgeStyle=orthogonalEdgeStyle;rounded=0;orthogonalLoop=1;jettySize=auto;html=1;" edge="1" parent="1" source="sgj0Pk3TnUekTyNWO7hc-21" target="sgj0Pk3TnUekTyNWO7hc-24">
          <mxGeometry relative="1" as="geometry" />
        </mxCell>
        <mxCell id="sgj0Pk3TnUekTyNWO7hc-21" value="queue a packet" style="rounded=0;whiteSpace=wrap;html=1;" vertex="1" parent="1">
          <mxGeometry x="495" y="830" width="120" height="30" as="geometry" />
        </mxCell>
        <mxCell id="sgj0Pk3TnUekTyNWO7hc-28" value="" style="edgeStyle=orthogonalEdgeStyle;rounded=0;orthogonalLoop=1;jettySize=auto;html=1;" edge="1" parent="1" source="sgj0Pk3TnUekTyNWO7hc-24" target="sgj0Pk3TnUekTyNWO7hc-25">
          <mxGeometry relative="1" as="geometry" />
        </mxCell>
        <mxCell id="sgj0Pk3TnUekTyNWO7hc-24" value="&lt;div&gt;handle buffering&lt;/div&gt;" style="rounded=0;whiteSpace=wrap;html=1;" vertex="1" parent="1">
          <mxGeometry x="660" y="800" width="120" height="30" as="geometry" />
        </mxCell>
        <mxCell id="sgj0Pk3TnUekTyNWO7hc-25" value="&lt;div&gt;check jitter&lt;/div&gt;" style="rounded=0;whiteSpace=wrap;html=1;" vertex="1" parent="1">
          <mxGeometry x="805" y="800" width="120" height="30" as="geometry" />
        </mxCell>
        <mxCell id="sgj0Pk3TnUekTyNWO7hc-47" value="AsyncSock" style="swimlane;fontStyle=1;align=center;verticalAlign=top;childLayout=stackLayout;horizontal=1;startSize=26;horizontalStack=0;resizeParent=1;resizeParentMax=0;resizeLast=0;collapsible=1;marginBottom=0;labelBackgroundColor=#FFFFFF;" vertex="1" parent="1">
          <mxGeometry x="-190" y="950" width="140" height="190" as="geometry" />
        </mxCell>
        <mxCell id="sgj0Pk3TnUekTyNWO7hc-48" value="+ sock: int&#xa;+ mgr: AsyncSockMgr*&#xa;+ next: AsyncSock&#xa;+ mem:  MemEntry*&#xa; &#xa;" style="text;strokeColor=none;fillColor=none;align=left;verticalAlign=top;spacingLeft=4;spacingRight=4;overflow=hidden;rotatable=0;points=[[0,0.5],[1,0.5]];portConstraint=eastwest;labelBackgroundColor=#FFFFFF;" vertex="1" parent="sgj0Pk3TnUekTyNWO7hc-47">
          <mxGeometry y="26" width="140" height="74" as="geometry" />
        </mxCell>
        <mxCell id="sgj0Pk3TnUekTyNWO7hc-49" value="" style="line;strokeWidth=1;fillColor=none;align=left;verticalAlign=middle;spacingTop=-1;spacingLeft=3;spacingRight=3;rotatable=0;labelPosition=right;points=[];portConstraint=eastwest;strokeColor=inherit;labelBackgroundColor=#FFFFFF;" vertex="1" parent="sgj0Pk3TnUekTyNWO7hc-47">
          <mxGeometry y="100" width="140" height="8" as="geometry" />
        </mxCell>
        <mxCell id="sgj0Pk3TnUekTyNWO7hc-51" value="+ as_mgr_init" style="text;strokeColor=none;fillColor=none;align=left;verticalAlign=top;spacingLeft=4;spacingRight=4;overflow=hidden;rotatable=0;points=[[0,0.5],[1,0.5]];portConstraint=eastwest;labelBackgroundColor=#FFFFFF;" vertex="1" parent="sgj0Pk3TnUekTyNWO7hc-47">
          <mxGeometry y="108" width="140" height="26" as="geometry" />
        </mxCell>
        <mxCell id="sgj0Pk3TnUekTyNWO7hc-50" value="+ as_mgr_loop" style="text;strokeColor=none;fillColor=none;align=left;verticalAlign=top;spacingLeft=4;spacingRight=4;overflow=hidden;rotatable=0;points=[[0,0.5],[1,0.5]];portConstraint=eastwest;labelBackgroundColor=#FFFFFF;" vertex="1" parent="sgj0Pk3TnUekTyNWO7hc-47">
          <mxGeometry y="134" width="140" height="28" as="geometry" />
        </mxCell>
        <mxCell id="sgj0Pk3TnUekTyNWO7hc-52" value="+ as_mgr_destroy" style="text;strokeColor=none;fillColor=none;align=left;verticalAlign=top;spacingLeft=4;spacingRight=4;overflow=hidden;rotatable=0;points=[[0,0.5],[1,0.5]];portConstraint=eastwest;labelBackgroundColor=#FFFFFF;" vertex="1" parent="sgj0Pk3TnUekTyNWO7hc-47">
          <mxGeometry y="162" width="140" height="28" as="geometry" />
        </mxCell>
        <mxCell id="sgj0Pk3TnUekTyNWO7hc-55" value="AsyncSockMgr" style="swimlane;fontStyle=0;childLayout=stackLayout;horizontal=1;startSize=26;fillColor=none;horizontalStack=0;resizeParent=1;resizeParentMax=0;resizeLast=0;collapsible=1;marginBottom=0;labelBackgroundColor=#FFFFFF;" vertex="1" parent="1">
          <mxGeometry x="50" y="940" width="200" height="104" as="geometry" />
        </mxCell>
        <mxCell id="sgj0Pk3TnUekTyNWO7hc-56" value="+ _cb_event: ASYNC_FUNC" style="text;strokeColor=none;fillColor=none;align=left;verticalAlign=top;spacingLeft=4;spacingRight=4;overflow=hidden;rotatable=0;points=[[0,0.5],[1,0.5]];portConstraint=eastwest;labelBackgroundColor=#FFFFFF;" vertex="1" parent="sgj0Pk3TnUekTyNWO7hc-55">
          <mxGeometry y="26" width="200" height="26" as="geometry" />
        </mxCell>
        <mxCell id="sgj0Pk3TnUekTyNWO7hc-57" value="+ _cb_data: ASYNC_FUNC_DATA" style="text;strokeColor=none;fillColor=none;align=left;verticalAlign=top;spacingLeft=4;spacingRight=4;overflow=hidden;rotatable=0;points=[[0,0.5],[1,0.5]];portConstraint=eastwest;labelBackgroundColor=#FFFFFF;" vertex="1" parent="sgj0Pk3TnUekTyNWO7hc-55">
          <mxGeometry y="52" width="200" height="26" as="geometry" />
        </mxCell>
        <mxCell id="sgj0Pk3TnUekTyNWO7hc-58" value="+ _node:  AsyncSock*" style="text;strokeColor=none;fillColor=none;align=left;verticalAlign=top;spacingLeft=4;spacingRight=4;overflow=hidden;rotatable=0;points=[[0,0.5],[1,0.5]];portConstraint=eastwest;labelBackgroundColor=#FFFFFF;" vertex="1" parent="sgj0Pk3TnUekTyNWO7hc-55">
          <mxGeometry y="78" width="200" height="26" as="geometry" />
        </mxCell>
        <mxCell id="sgj0Pk3TnUekTyNWO7hc-59" value="" style="edgeStyle=orthogonalEdgeStyle;rounded=0;orthogonalLoop=1;jettySize=auto;html=1;" edge="1" parent="1" source="sgj0Pk3TnUekTyNWO7hc-48" target="sgj0Pk3TnUekTyNWO7hc-58">
          <mxGeometry relative="1" as="geometry" />
        </mxCell>
        <mxCell id="sgj0Pk3TnUekTyNWO7hc-62" value="" style="edgeStyle=orthogonalEdgeStyle;rounded=0;orthogonalLoop=1;jettySize=auto;html=1;" edge="1" parent="1" source="sgj0Pk3TnUekTyNWO7hc-60" target="sgj0Pk3TnUekTyNWO7hc-61">
          <mxGeometry relative="1" as="geometry" />
        </mxCell>
        <mxCell id="sgj0Pk3TnUekTyNWO7hc-60" value="as_mgr_loop" style="rounded=0;whiteSpace=wrap;html=1;labelBackgroundColor=#FFFFFF;" vertex="1" parent="1">
          <mxGeometry x="425" y="920" width="120" height="60" as="geometry" />
        </mxCell>
        <mxCell id="sgj0Pk3TnUekTyNWO7hc-66" value="" style="edgeStyle=orthogonalEdgeStyle;rounded=0;orthogonalLoop=1;jettySize=auto;html=1;" edge="1" parent="1" source="sgj0Pk3TnUekTyNWO7hc-61" target="sgj0Pk3TnUekTyNWO7hc-64">
          <mxGeometry relative="1" as="geometry">
            <Array as="points">
              <mxPoint x="485" y="1145" />
            </Array>
          </mxGeometry>
        </mxCell>
        <mxCell id="sgj0Pk3TnUekTyNWO7hc-69" style="edgeStyle=orthogonalEdgeStyle;rounded=0;orthogonalLoop=1;jettySize=auto;html=1;" edge="1" parent="1" source="sgj0Pk3TnUekTyNWO7hc-61" target="sgj0Pk3TnUekTyNWO7hc-63">
          <mxGeometry relative="1" as="geometry" />
        </mxCell>
        <mxCell id="sgj0Pk3TnUekTyNWO7hc-70" style="edgeStyle=orthogonalEdgeStyle;rounded=0;orthogonalLoop=1;jettySize=auto;html=1;entryX=0.5;entryY=0;entryDx=0;entryDy=0;" edge="1" parent="1" source="sgj0Pk3TnUekTyNWO7hc-61" target="sgj0Pk3TnUekTyNWO7hc-65">
          <mxGeometry relative="1" as="geometry" />
        </mxCell>
        <mxCell id="sgj0Pk3TnUekTyNWO7hc-61" value="&amp;nbsp; 循环遍历Mgr中的node节点，采用select监听读写事件" style="rounded=0;whiteSpace=wrap;html=1;labelBackgroundColor=#FFFFFF;" vertex="1" parent="1">
          <mxGeometry x="415" y="1025" width="140" height="60" as="geometry" />
        </mxCell>
        <mxCell id="sgj0Pk3TnUekTyNWO7hc-63" value="连接事件" style="rounded=1;whiteSpace=wrap;html=1;labelBackgroundColor=#FFFFFF;" vertex="1" parent="1">
          <mxGeometry x="280" y="1135" width="90" height="30" as="geometry" />
        </mxCell>
        <mxCell id="sgj0Pk3TnUekTyNWO7hc-64" value="数据事件" style="rounded=1;whiteSpace=wrap;html=1;labelBackgroundColor=#FFFFFF;" vertex="1" parent="1">
          <mxGeometry x="440" y="1135" width="90" height="30" as="geometry" />
        </mxCell>
        <mxCell id="sgj0Pk3TnUekTyNWO7hc-65" value="错误事件" style="rounded=1;whiteSpace=wrap;html=1;labelBackgroundColor=#FFFFFF;" vertex="1" parent="1">
          <mxGeometry x="585" y="1135" width="90" height="30" as="geometry" />
        </mxCell>
      </root>
    </mxGraphModel>
  </diagram>
</mxfile>
